<svg xmlns="http://www.w3.org/2000/svg" viewBox="0 0 210.6 78.05"><g id="Capa_2" data-name="Capa 2"><g id="Capa_1-2" data-name="Capa 1"><path d="M0,53.12A48.42,48.42,0,0,1,1.38,41.6,52,52,0,0,1,5.27,30.87a48.64,48.64,0,0,1,6-9.3,43.51,43.51,0,0,1,7.62-7.33,34.14,34.14,0,0,1,8.83-4.82A27.61,27.61,0,0,1,37.33,7.7q5.78,0,9,2.43a8,8,0,0,1,3.22,6.78,13.39,13.39,0,0,1-.46,3.43,17,17,0,0,1-1.34,3.47,23.28,23.28,0,0,1-2,3.31,15.19,15.19,0,0,1-2.59,2.76,6.56,6.56,0,0,1-3.77-2,7.37,7.37,0,0,1-2-3.81A23.13,23.13,0,0,0,42,19a9,9,0,0,0,1.71-4.81q0-3.68-4.6-3.68a11,11,0,0,0-4,.79A20.71,20.71,0,0,0,31,13.56,27,27,0,0,0,26.91,17a33.13,33.13,0,0,0-3.64,4.44Q11.63,38.17,11.64,55.66a22,22,0,0,0,1.92,10q1.92,3.76,5.11,4.44,3.6-.84,9.12-4.6a107,107,0,0,0,12.05-9.8,3.44,3.44,0,0,1,1,1.76q-2.43,3.16-5,6.08c-1.72,2-3.44,3.73-5.14,5.34a57.45,57.45,0,0,1-5,4.25,28.1,28.1,0,0,1-4.56,2.83q-10.38,0-15.73-5.78T0,53.12Z"/><path d="M46.29,64.12a43.25,43.25,0,0,1,1.76-10.34Q49.81,47.12,53,38.25q5.19-14.14,9.76-23.56A74.42,74.42,0,0,1,71.65,0a10.12,10.12,0,0,1,2.47.84c1,.45,1.94.93,2.89,1.46a24.5,24.5,0,0,1,2.55,1.63A7,7,0,0,1,81,5.27,102.6,102.6,0,0,0,69.56,21.85a134.48,134.48,0,0,0-9,20.34A165,165,0,0,0,55.16,60a60.12,60.12,0,0,0-1.84,13.19v1.75a3,3,0,0,0,.08.67,6.52,6.52,0,0,1-2-.58,2.14,2.14,0,0,1-1.08-1,4.9,4.9,0,0,0-.92-1.21,10.24,10.24,0,0,0-1.34-1.21,4.49,4.49,0,0,1-1.26-2.64A21.35,21.35,0,0,1,46.29,64.12Z"/><path d="M75.67,72.4a10.64,10.64,0,0,1-7.62-4.18,14.88,14.88,0,0,1-2.85-9.38,25.77,25.77,0,0,1,1-6.94,33.35,33.35,0,0,1,2.85-7,38.49,38.49,0,0,1,4.35-6.41,32,32,0,0,1,5.44-5.19q4.61-3.42,8.62-3.43,2.67,1.43,5.27,5.94a5.92,5.92,0,0,0,.76,0c.22,0,.47,0,.75,0q4.44,0,4.44,7.87a29.15,29.15,0,0,1-1.72,10,30.48,30.48,0,0,1-4.77,8.58A28.67,28.67,0,0,1,75.67,72.4ZM79.94,46a37.42,37.42,0,0,0-2.68,4.18,39.43,39.43,0,0,0-2.18,4.56,31.48,31.48,0,0,0-1.42,4.44,16.5,16.5,0,0,0-.5,3.81,11.1,11.1,0,0,0,.67,3.85c.44,1.23.94,1.92,1.5,2.09a18.06,18.06,0,0,0,6.91-3.14,22.73,22.73,0,0,0,5.44-5.73,28.79,28.79,0,0,0,3.6-7.78,32.61,32.61,0,0,0,1.3-9.3,18,18,0,0,0-.26-3.43,6.1,6.1,0,0,0-.83-2.17,17.84,17.84,0,0,0-6.57,3.51A33.65,33.65,0,0,0,79.94,46Z"/><path d="M116.26,28.88a8.91,8.91,0,0,1,4.1,3,15.34,15.34,0,0,1,2.85,5.06,39,39,0,0,1-2.85,5.44q-1.92,3.19-3.85,6.49T113,55.12a15.77,15.77,0,0,0-1.8,4.9c.89-1,1.88-2.06,3-3.31s2.15-2.51,3.18-3.77,2-2.4,2.89-3.43,1.59-1.8,2.09-2.3c1.06-1.12,2.32-2.41,3.77-3.89a58.17,58.17,0,0,1,4.56-4.19,34.08,34.08,0,0,1,4.82-3.35A9.08,9.08,0,0,1,140,34.4a4.92,4.92,0,0,1,3.64,1.47,12.29,12.29,0,0,1,2.3,3.05c0,.12-.2.27-.62.46a6.87,6.87,0,0,0-1.8,1.64,32,32,0,0,0-2.64,4.14c-1,1.76-1.92,3.65-2.85,5.69a47.74,47.74,0,0,0-2.3,6.24,21.06,21.06,0,0,0-.92,5.77,4.25,4.25,0,0,0,.55,2.68,2,2,0,0,0,1.54.59,5,5,0,0,0,1.93-.42,4.45,4.45,0,0,1,1.59-.42,1.26,1.26,0,0,1,.54.71,2.69,2.69,0,0,1,.21,1,11.31,11.31,0,0,1-1.59,1.17,18,18,0,0,1-1.92,1.09,15.51,15.51,0,0,1-2,.84,5.35,5.35,0,0,1-1.72.33,9.47,9.47,0,0,1-4-.71,6.2,6.2,0,0,1-2.43-1.88,7,7,0,0,1-1.21-2.8,16.84,16.84,0,0,1-.34-3.48,17.62,17.62,0,0,1,.17-2.26,19.67,19.67,0,0,1,.67-3c.34-1.14.81-2.51,1.42-4.1s1.4-3.5,2.35-5.73a16.06,16.06,0,0,0-2.26,1.17,21.08,21.08,0,0,0-4.52,3.6,100.65,100.65,0,0,0-7.08,7.45q-3.14,3.68-6.4,8.2-1.84,2.59-3.22,4.39a9.43,9.43,0,0,1-2.39,2.39,6.2,6.2,0,0,1-2.59-2.8,17.82,17.82,0,0,1-1.26-3.73,23,23,0,0,1,.46-4c.31-1.62.73-3.41,1.26-5.4s1.18-4.06,2-6.23,1.65-4.35,2.6-6.53A87,87,0,0,1,113,33.4C114.71,30.61,115.82,29.1,116.26,28.88Z"/><path d="M177.87,34.82A29.16,29.16,0,0,1,176,43.74a19.57,19.57,0,0,1-4.31,6.52,31.35,31.35,0,0,1-6.83,5.07,72.79,72.79,0,0,1-9.37,4.35c0,.34,0,.68,0,1s0,.74,0,1.13a16.23,16.23,0,0,0,.16,2.26,8.77,8.77,0,0,0,.59,2.17,4.23,4.23,0,0,0,1.17,1.64,2.94,2.94,0,0,0,1.93.62,10.47,10.47,0,0,0,4.43-1,23.42,23.42,0,0,0,4.15-2.47,35,35,0,0,0,3.68-3.18q1.71-1.71,3-3.14A17.48,17.48,0,0,1,176,60.18a40.25,40.25,0,0,1-8.25,8.33,23.61,23.61,0,0,1-8.49,4.23,13.82,13.82,0,0,1-9-4.23,12.32,12.32,0,0,1-3.23-8.58,26.4,26.4,0,0,1,1-7,33.78,33.78,0,0,1,2.68-6.86,40.14,40.14,0,0,1,4-6.24,33.3,33.3,0,0,1,4.94-5.1,24.13,24.13,0,0,1,5.44-3.44,13.66,13.66,0,0,1,5.57-1.25C173.24,30.38,175.64,32,177.87,34.82Zm-5.78,2.76a12.52,12.52,0,0,0-4.69,1.85,19.85,19.85,0,0,0-4.56,4A32.24,32.24,0,0,0,159,49.3a33.78,33.78,0,0,0-2.76,7.2,37.44,37.44,0,0,0,11.13-8.24A17.15,17.15,0,0,0,172.09,37.58Z"/><path d="M210.6,36a16.1,16.1,0,0,1-.55,3.31,17.27,17.27,0,0,1-1.13,3.1,11.84,11.84,0,0,1-1.42,2.3,2,2,0,0,1-1.42.92c-.62,0-1-.47-1.09-1.26a2.55,2.55,0,0,1,.21-.79l.46-1.21c.16-.45.32-.9.46-1.34a4,4,0,0,0,.21-1.18,3.4,3.4,0,0,0-.55-2,1.69,1.69,0,0,0-1.46-.8c-2.23,0-3.94,1.39-5.11,4.17s-1.76,6.86-1.76,12.24a3,3,0,0,0,.09,1h5.86a1.91,1.91,0,0,1,.08.67,1.48,1.48,0,0,1-.33,1.08c-1.29.28-2.31.52-3.06.71a15.22,15.22,0,0,0-1.72.54,1.33,1.33,0,0,0-.71.54,2.15,2.15,0,0,0-.12.79c0,.45,0,.89,0,1.34s0,1,0,1.66q0,7-3.81,11.26t-10.59,4.93a6.73,6.73,0,0,1-2.42-.67,11.38,11.38,0,0,1-2.39-1.5,11.91,11.91,0,0,1-2-2,7.37,7.37,0,0,1-1.17-2.3,14.51,14.51,0,0,1,1.34-6.12,17.22,17.22,0,0,1,3.64-5.15,18.41,18.41,0,0,1,5.44-3.62,16.64,16.64,0,0,1,6.82-1.4,20,20,0,0,0-.41-4.11c-.28-1.35-.58-2.65-.88-3.91s-.6-2.5-.88-3.7a15.82,15.82,0,0,1-.42-3.58,11.71,11.71,0,0,1,.92-4.49,16.62,16.62,0,0,1,2.43-4.12,15.45,15.45,0,0,1,3.51-3.24A12.87,12.87,0,0,1,201,26.24a8,8,0,0,1,2.47,1.47,32.91,32.91,0,0,1,3.05,2.72,28.55,28.55,0,0,1,2.68,3A8.08,8.08,0,0,1,210.6,36ZM183,74.2a13.75,13.75,0,0,0,3.81-2.42,18.58,18.58,0,0,0,3.14-3.6,19.84,19.84,0,0,0,2.14-4.27,13.61,13.61,0,0,0,.79-4.44A9.68,9.68,0,0,0,189.17,61a22,22,0,0,0-3.77,3.1,21.05,21.05,0,0,0-2.93,3.72,6.74,6.74,0,0,0-1.17,3.35A3.54,3.54,0,0,0,183,74.2Z"/></g></g></svg>